HIERARCHY
ROOT Hips
{
	OFFSET 0.000000 0.000000 0.000000 
	CHANNELS 6 Xposition Yposition Zposition Zrotation Yrotation Xrotation
	JOINT LeftUpLeg
	{
		OFFSET 1.363060 -1.794630 0.839290 
		CHANNELS 3 Zrotation Yrotation Xrotation
		JOINT LeftLeg
		{
			OFFSET 2.448110 -6.726130 0.000000 
			CHANNELS 3 Zrotation Yrotation Xrotation
			JOINT LeftFoot
			{
				OFFSET 2.562200 -7.039590 0.000000 
				CHANNELS 3 Zrotation Yrotation Xrotation
				JOINT LeftToeBase
				{
					OFFSET 0.157640 -0.433110 2.322550 
					CHANNELS 3 Zrotation Yrotation Xrotation
					End Site
					{
						OFFSET 0.000000 0.000000 0.000000 
					}
				}
			}
		}
	}
	JOINT RightUpLeg
	{
		OFFSET -1.305520 -1.794630 0.839290 
		CHANNELS 3 Zrotation Yrotation Xrotation
		JOINT RightLeg
		{
			OFFSET -2.542530 -6.985550 0.000000 
			CHANNELS 3 Zrotation Yrotation Xrotation
			JOINT RightFoot
			{
				OFFSET -2.568260 -7.056230 0.000000 
				CHANNELS 3 Zrotation Yrotation Xrotation
				JOINT RightToeBase
				{
					OFFSET -0.164730 -0.452590 2.363150 
					CHANNELS 3 Zrotation Yrotation Xrotation
					End Site
					{
						OFFSET 0.000000 0.000000 0.000000 
					}
				}
			}
		}
	}
	JOINT Spine
	{
		OFFSET 0.028270 2.035590 -0.193380 
		CHANNELS 3 Zrotation Yrotation Xrotation
		JOINT Spine1
		{
			OFFSET 0.056720 2.048850 -0.042750 
			CHANNELS 3 Zrotation Yrotation Xrotation
			JOINT Neck1
			{
				OFFSET -0.054170 1.746240 0.172020 
				CHANNELS 3 Zrotation Yrotation Xrotation
				JOINT Head
				{
					OFFSET 0.104070 1.761360 -0.123970 
					CHANNELS 3 Zrotation Yrotation Xrotation
					End Site
					{
						OFFSET 0.000000 0.000000 0.000000 
					}
				}
			}
			JOINT LeftArm
			{
				OFFSET 3.362410 1.200890 -0.311210 
				CHANNELS 3 Zrotation Yrotation Xrotation
				JOINT LeftForeArm
				{
					OFFSET 4.983000 -0.000000 -0.000000 
					CHANNELS 3 Zrotation Yrotation Xrotation
					JOINT LeftHand
					{
						OFFSET 3.483560 -0.000000 -0.000000 
						CHANNELS 3 Zrotation Yrotation Xrotation
						JOINT LeftHandIndex1
						{
							OFFSET 0.715260 -0.000000 -0.000000 
							CHANNELS 3 Zrotation Yrotation Xrotation
							End Site
							{
								OFFSET 0.000000 0.000000 0.000000 
							}
						}
					}
				}
			}
			JOINT RightArm
			{
				OFFSET -3.136600 1.374050 -0.404650 
				CHANNELS 3 Zrotation Yrotation Xrotation
				JOINT RightForeArm
				{
					OFFSET -5.241900 -0.000000 -0.000000 
					CHANNELS 3 Zrotation Yrotation Xrotation
					JOINT RightHand
					{
						OFFSET -3.444170 -0.000000 -0.000000 
						CHANNELS 3 Zrotation Yrotation Xrotation
						JOINT RightHandIndex1
						{
							OFFSET -0.622530 -0.000000 -0.000000 
							CHANNELS 3 Zrotation Yrotation Xrotation
							End Site
							{
								OFFSET 0.000000 0.000000 0.000000 
							}
						}
					}
				}
			}
		}
	}
}
MOTION
Frames: 16
Frame Time: 0.041667
13.484529 17.490776 -13.316880 -0.739256 -35.140354 8.429115 -19.000728 8.772484 1.406894 -2.259357 -1.198022 4.848717 0.294279 3.059249 -13.601410 1.110900 6.696400 18.818800 24.570698 36.111002 -8.182987 1.019985 -5.557693 18.172192 0.250343 -11.304244 -9.320560 -1.652200 8.100600 -23.020100 1.437973 -2.296836 0.678984 1.411466 -0.971908 4.714731 -11.718730 -9.506438 29.858590 -4.404200 -6.535800 9.794800 19.350517 -26.215271 -65.779747 163.825761 -22.529975 -116.158218 -1.377189 0.162187 -48.194791 -7.125000 0.000000 0.000000 48.704456 -29.117307 48.861646 -123.494621 45.925275 -91.593654 0.171600 -0.470980 -27.862364 7.125000 0.000000 0.000000 
13.483997 17.496623 -13.315391 -0.935955 -34.907002 8.526847 -18.807025 8.543652 1.422159 -2.262722 -1.198344 4.842329 0.284543 3.080907 -13.546540 1.149200 6.806900 19.144400 24.780116 35.979387 -8.094356 1.032971 -5.528125 18.118651 0.219696 -11.140290 -9.734614 -1.440600 7.588000 -21.469500 1.444759 -2.333762 0.676927 1.425464 -0.980073 4.731571 -10.564265 -9.281901 30.226159 -3.732100 -6.571900 10.240500 19.358597 -26.365993 -66.037948 163.688846 -22.732450 -116.076000 -1.379685 0.124844 -48.039572 -7.125000 0.000000 0.000000 48.744783 -29.197580 48.905409 -123.327486 45.974856 -91.450714 0.177608 -0.466234 -27.847387 7.125000 0.000000 0.000000 
13.483678 17.501301 -13.311458 -0.975115 -34.605655 8.455767 -18.723095 8.241175 1.544005 -2.270495 -1.201519 4.832595 0.271946 3.121218 -13.479413 1.151400 6.813200 19.163100 24.897384 35.728225 -7.890053 1.038910 -5.493680 18.093526 0.195333 -11.013339 -10.129937 -1.281100 7.172700 -20.227900 1.469719 -2.434375 0.696791 1.368569 -1.030119 4.748357 -10.762625 -9.201319 30.248614 -3.895100 -6.483100 10.193800 19.338727 -26.530506 -66.354124 163.591112 -22.872039 -116.033557 -1.386062 0.095565 -48.072898 -7.125000 0.000000 0.000000 48.747095 -29.212000 48.950868 -123.105377 46.049223 -91.250475 0.184235 -0.460257 -27.936126 7.125000 0.000000 0.000000 
13.483253 17.501726 -13.308162 -0.878595 -34.421094 8.333982 -18.773460 8.049330 1.652823 -2.277711 -1.204551 4.826576 0.275818 3.116483 -13.506081 1.139600 6.779400 19.063300 24.857848 35.627603 -7.751385 1.035542 -5.483592 18.109475 0.213314 -11.166185 -10.072869 -1.329700 7.302200 -20.613800 1.458722 -2.476955 0.726162 1.406345 -1.047602 4.787501 -10.635705 -9.185259 30.120044 -3.748000 -6.519600 10.156900 19.386135 -26.668312 -66.842117 163.507712 -23.004936 -115.986653 -1.385791 0.073813 -48.401081 -7.125000 0.000000 0.000000 48.725436 -29.206286 49.057767 -123.068568 46.070174 -91.217054 0.179568 -0.452003 -27.971686 7.125000 0.000000 0.000000 
13.483572 17.500238 -13.308481 -0.818578 -34.352129 8.271757 -18.816511 7.962637 1.703324 -2.282210 -1.205248 4.824050 0.283093 3.111511 -13.564205 1.124200 6.735000 18.932500 24.827204 35.607652 -7.715417 1.032466 -5.488841 18.136433 0.237063 -11.381686 -9.951544 -1.485000 7.699100 -21.803800 1.455539 -2.483394 0.721993 1.331055 -1.054761 4.749945 -11.506800 -9.249963 30.000489 -4.255300 -6.478000 9.957900 19.499226 -26.683093 -67.484462 163.339190 -23.252548 -115.918407 -1.391948 0.024597 -48.978257 -7.125000 0.000000 0.000000 48.802220 -29.224848 49.178035 -123.061688 46.069482 -91.221955 0.191485 -0.451349 -28.099596 7.125000 0.000000 0.000000 
13.481765 17.498218 -13.309757 -0.785354 -34.376340 8.288522 -18.860472 7.959285 1.684405 -2.285960 -1.203655 4.822335 0.282633 3.157805 -13.606816 1.081400 6.609700 18.564000 24.775005 35.615360 -7.759599 1.036842 -5.487123 18.118038 0.241805 -11.459111 -9.983507 -1.542900 7.841000 -22.232200 1.435442 -2.419842 0.709823 1.209255 -1.027468 4.732648 -12.376370 -9.370842 29.912084 -4.786900 -6.448200 9.767600 19.814119 -26.639682 -68.349044 163.023471 -23.717105 -115.800427 -1.390021 -0.035038 -49.713671 -7.125000 0.000000 0.000000 48.993644 -29.285645 49.175849 -122.929515 46.096246 -91.111458 0.217198 -0.469747 -28.227485 7.125000 0.000000 0.000000 
13.479426 17.500344 -13.309544 -0.729089 -34.412148 8.346552 -18.921650 7.950929 1.599321 -2.287283 -1.198766 4.818267 0.289561 3.118990 -13.625953 1.121500 6.727000 18.909200 24.653357 35.669405 -7.864164 1.040153 -5.486733 18.083603 0.237819 -11.391358 -9.943224 -1.387700 7.453300 -21.065500 1.402799 -2.317161 0.703468 1.157882 -0.976957 4.764670 -12.459498 -9.424524 29.881185 -4.845400 -6.453900 9.733000 20.117868 -26.718341 -69.025394 162.686619 -24.211437 -115.662942 -1.381271 -0.080912 -50.291907 -7.125000 0.000000 0.000000 49.161576 -29.421081 49.154970 -122.819835 46.110871 -91.014017 0.214754 -0.482064 -28.237282 7.125000 0.000000 0.000000 
13.481658 17.503640 -13.308588 -0.820254 -34.230655 8.372885 -18.810671 7.756866 1.616762 -2.287963 -1.197831 4.812870 0.296980 3.032861 -13.607640 1.190700 6.924300 19.491300 24.771007 35.645923 -7.773190 1.041788 -5.479209 18.088583 0.245707 -11.504018 -9.967725 -1.294400 7.208400 -20.334200 1.418432 -2.359857 0.702196 1.119239 -0.994199 4.719816 -12.442800 -9.369186 29.790643 -4.817900 -6.428000 9.683800 20.210418 -26.804392 -69.454800 162.357445 -24.669055 -115.517508 -1.372784 -0.130989 -50.787612 -7.125000 0.000000 0.000000 49.141942 -29.503656 49.268463 -122.735097 46.135279 -90.941013 0.219102 -0.480737 -28.227945 7.125000 0.000000 0.000000 
13.483147 17.504490 -13.306355 -0.879723 -34.050220 8.362991 -18.741397 7.573968 1.681415 -2.292208 -1.199450 4.807884 0.295026 3.037999 -13.598626 1.209200 6.976100 19.644600 24.868394 35.577404 -7.656493 1.045942 -5.462259 18.076740 0.254377 -11.632780 -10.030557 -1.326700 7.294300 -20.590100 1.418608 -2.417769 0.704450 1.026620 -1.019833 4.686147 -12.566175 -9.331348 29.700084 -4.877800 -6.391700 9.594500 20.208089 -26.988748 -69.705206 162.028371 -25.114580 -115.371128 -1.364122 -0.185198 -51.261287 -7.125000 0.000000 0.000000 49.201176 -29.560830 49.347965 -122.663432 46.160077 -90.887193 0.237100 -0.475974 -28.111499 7.125000 0.000000 0.000000 
13.481977 17.501088 -13.302422 -0.630028 -33.995232 8.215282 -18.976210 7.489660 1.750732 -2.303532 -1.202441 4.797446 0.265231 3.205952 -13.496488 1.135300 6.766900 19.026600 24.625851 35.472104 -7.661386 1.039295 -5.465201 18.092117 0.273492 -11.709095 -9.831615 -1.393000 7.466900 -21.106300 1.378276 -2.414568 0.715023 1.033158 -1.020521 4.742772 -12.525834 -9.303160 29.718923 -4.861400 -6.378300 9.610500 20.132217 -27.249656 -69.815163 161.708421 -25.536984 -115.220244 -1.355770 -0.229735 -51.701762 -7.125000 0.000000 0.000000 49.304123 -29.521591 49.400216 -122.577096 46.188657 -90.809282 0.225830 -0.469260 -28.035417 7.125000 0.000000 0.000000 
13.482296 17.499068 -13.301465 -0.541229 -33.913059 8.147729 -19.057878 7.392241 1.805072 -2.311815 -1.205590 4.787937 0.222258 3.409639 -13.319017 0.973300 6.280800 17.601200 24.565185 35.409096 -7.672200 1.025817 -5.496602 18.184172 0.287547 -11.809083 -9.720528 -1.399000 7.482400 -21.152600 1.382422 -2.434583 0.731883 1.074693 -1.032861 4.797638 -12.641504 -9.251367 29.723752 -4.926700 -6.357800 9.622600 20.047313 -27.416071 -70.004695 161.341512 -26.014940 -115.040984 -1.344566 -0.264978 -52.095440 -7.125000 0.000000 0.000000 49.282843 -29.348077 49.504828 -122.401231 46.259555 -90.641199 0.213794 -0.458383 -28.019199 7.125000 0.000000 0.000000 
13.482934 17.504809 -13.302741 -0.557850 -33.804859 8.151645 -19.028712 7.269765 1.824299 -2.318197 -1.204978 4.783858 0.222477 3.460553 -13.377895 0.945500 6.192800 17.345000 24.585958 35.406769 -7.676436 1.021077 -5.516697 18.239109 0.264088 -11.711082 -10.065668 -1.248200 7.083400 -19.962700 1.396729 -2.466880 0.737896 1.075783 -1.050278 4.816215 -12.825045 -9.185810 29.716075 -5.037700 -6.324800 9.626100 20.067483 -27.511275 -70.257191 160.928828 -26.551381 -114.848144 -1.330575 -0.288411 -52.368037 -7.125000 0.000000 0.000000 49.252783 -29.191774 49.609367 -122.245395 46.321874 -90.495408 0.214138 -0.451632 -28.048750 7.125000 0.000000 0.000000 
13.483359 17.507786 -13.303166 -0.419488 -33.707557 8.072110 -19.138857 7.142328 1.850062 -2.328603 -1.203915 4.777618 0.231798 3.501793 -13.501460 0.984400 6.315500 17.702500 24.444622 35.354323 -7.677489 1.021906 -5.512826 18.229998 0.259275 -11.693641 -10.192820 -1.219600 7.004900 -19.730000 1.392453 -2.504349 0.732234 1.138677 -1.069674 4.811938 -12.673599 -9.087294 29.780074 -4.947700 -6.312400 9.726800 20.068031 -27.514660 -70.441293 160.448334 -27.150013 -114.631032 -1.314236 -0.299627 -52.663775 -7.125000 0.000000 0.000000 49.148606 -29.064535 49.754715 -122.176187 46.353230 -90.424706 0.213627 -0.456002 -28.314634 7.125000 0.000000 0.000000 
13.482083 17.504490 -13.306993 -0.524662 -33.696957 8.148176 -19.044777 7.118220 1.818425 -2.329923 -1.203581 4.775286 0.208830 3.612152 -13.416388 0.891600 6.018500 16.838200 24.561945 35.385678 -7.675022 1.025648 -5.505578 18.208893 0.285487 -11.868727 -9.888114 -1.319600 7.275600 -20.534500 1.410942 -2.473638 0.722298 1.154814 -1.051758 4.770249 -12.642693 -9.094052 29.779539 -4.898000 -6.337400 9.734400 20.026655 -27.594691 -70.528547 159.917196 -27.803619 -114.383350 -1.297378 -0.307981 -52.876341 -7.125000 0.000000 0.000000 49.093917 -29.056462 49.896146 -122.160819 46.362474 -90.411279 0.217122 -0.457395 -28.606672 7.125000 0.000000 0.000000 
13.478363 17.504703 -13.309438 -0.712139 -33.750077 8.284019 -18.886972 7.176639 1.766306 -2.323941 -1.203665 4.780415 0.208066 3.591733 -13.395975 0.886200 6.000600 16.786300 24.728664 35.548583 -7.633751 1.036793 -5.481822 18.139957 0.283524 -11.885758 -9.898889 -1.254200 7.099900 -20.011800 1.408505 -2.398717 0.705824 1.302828 -1.004663 4.810272 -10.788006 -8.754986 30.494184 -3.816000 -6.432100 10.547800 19.995813 -27.762181 -70.546477 159.395135 -28.430720 -114.111530 -1.273010 -0.296197 -52.897428 -7.125000 0.000000 0.000000 49.014006 -29.097674 50.026476 -122.173191 46.356961 -90.431012 0.219675 -0.452748 -28.741498 7.125000 0.000000 0.000000 
13.475599 17.509168 -13.308481 -0.833066 -33.705106 8.440257 -18.784036 7.104241 1.659095 -2.322602 -1.197992 4.777557 0.223380 3.495882 -13.439673 0.996800 6.353800 17.814500 24.783096 35.679519 -7.622780 1.055633 -5.446770 18.030810 0.264684 -11.840353 -10.203589 -1.146900 6.800100 -19.124600 1.415921 -2.388755 0.678928 1.337652 -0.993672 4.825167 -10.045872 -8.585852 30.794530 -3.365200 -6.467300 10.877200 19.890124 -27.899750 -70.489749 158.885188 -29.023449 -113.858236 -1.257016 -0.283847 -52.899711 -7.125000 0.000000 0.000000 48.948740 -29.163880 50.137518 -122.175156 46.352166 -90.435564 0.219810 -0.454834 -28.780230 7.125000 0.000000 0.000000 
